<?xml version="1.0" encoding="UTF-8" standalone="no"?>
<svg
   width="139"
   height="21"
   viewBox="0 0 139 21"
   fill="none"
   version="1.1"
   id="svg279"
   sodipodi:docname="decodable.svg"
   inkscape:version="1.1.2 (0a00cf5339, 2022-02-04)"
   xmlns:inkscape="http://www.inkscape.org/namespaces/inkscape"
   xmlns:sodipodi="http://sodipodi.sourceforge.net/DTD/sodipodi-0.dtd"
   xmlns="http://www.w3.org/2000/svg"
   xmlns:svg="http://www.w3.org/2000/svg">
  <defs
     id="defs283" />
  <sodipodi:namedview
     id="namedview281"
     pagecolor="#ffffff"
     bordercolor="#666666"
     borderopacity="1.0"
     inkscape:pageshadow="2"
     inkscape:pageopacity="0.0"
     inkscape:pagecheckerboard="0"
     showgrid="false"
     inkscape:zoom="9.6258993"
     inkscape:cx="69.448057"
     inkscape:cy="10.544469"
     inkscape:window-width="1846"
     inkscape:window-height="1016"
     inkscape:window-x="74"
     inkscape:window-y="27"
     inkscape:window-maximized="1"
     inkscape:current-layer="svg279" />
  <path
     d="M0 20.1124V15.4716C1.44622 15.4716 2.8332 14.9011 3.85583 13.8856C4.87846 12.8701 5.45296 11.4928 5.45296 10.0566C5.45296 8.62051 4.87846 7.2432 3.85583 6.22771C2.8332 5.21221 1.44622 4.64171 0 4.64171V0C2.66988 0.0240812 5.22217 1.09418 7.10154 2.97747C8.98092 4.86076 10.0353 7.40486 10.0353 10.0562C10.0353 12.7076 8.98092 15.2517 7.10154 17.135C5.22217 19.0183 2.66988 20.0884 0 20.1124Z"
     fill="white"
     id="path257"
     style="fill:#000000" />
  <path
     d="M19.7411 20.1125L13.3341 13.7502C12.3494 12.7703 11.7964 11.4426 11.7964 10.0584C11.7964 8.67415 12.3494 7.34645 13.3341 6.36659L19.7411 0.00341797L23.2859 3.52349L16.7034 10.0601L23.2859 16.5958L19.7411 20.1125Z"
     fill="white"
     id="path259"
     style="fill:#000000" />
  <path
     d="M40.1751 2.23242V17.7548H38.2505V15.9976C37.8042 16.6112 37.2394 17.0784 36.556 17.3992C35.8726 17.72 35.1195 17.8803 34.2967 17.8803C33.2228 17.8803 32.2605 17.6433 31.4097 17.1691C30.559 16.6949 29.8896 16.0324 29.4015 15.1817C28.9273 14.317 28.6902 13.3268 28.6902 12.2111C28.6902 11.0954 28.9273 10.1122 29.4015 9.26144C29.8896 8.4107 30.559 7.74825 31.4097 7.27407C32.2605 6.79989 33.2228 6.5628 34.2967 6.5628C35.0916 6.5628 35.8238 6.71621 36.4932 7.02303C37.1627 7.31591 37.7205 7.75522 38.1668 8.34097V2.23242H40.1751ZM34.464 16.1231C35.1613 16.1231 35.7959 15.9627 36.3677 15.6419C36.9395 15.3072 37.3858 14.847 37.7066 14.2612C38.0273 13.6615 38.1877 12.9782 38.1877 12.2111C38.1877 11.4441 38.0273 10.7677 37.7066 10.1819C37.3858 9.5822 36.9395 9.12197 36.3677 8.8012C35.7959 8.48043 35.1613 8.32005 34.464 8.32005C33.7527 8.32005 33.1112 8.48043 32.5394 8.8012C31.9815 9.12197 31.5353 9.5822 31.2005 10.1819C30.8798 10.7677 30.7194 11.4441 30.7194 12.2111C30.7194 12.9782 30.8798 13.6615 31.2005 14.2612C31.5353 14.847 31.9815 15.3072 32.5394 15.6419C33.1112 15.9627 33.7527 16.1231 34.464 16.1231Z"
     fill="white"
     id="path261"
     style="fill:#000000" />
  <path
     d="M53.9955 12.2739C53.9955 12.4273 53.9815 12.6295 53.9536 12.8805H44.9582C45.0837 13.8568 45.5091 14.6448 46.2343 15.2445C46.9734 15.8302 47.8869 16.1231 48.9748 16.1231C50.2997 16.1231 51.3666 15.6768 52.1755 14.7842L53.2842 16.0813C52.7821 16.667 52.1545 17.1133 51.4014 17.4201C50.6623 17.7269 49.8325 17.8803 48.912 17.8803C47.7405 17.8803 46.7015 17.6433 45.795 17.1691C44.8884 16.681 44.1842 16.0045 43.6821 15.1399C43.194 14.2752 42.9499 13.2989 42.9499 12.2111C42.9499 11.1372 43.187 10.168 43.6612 9.30328C44.1493 8.4386 44.8117 7.76917 45.6485 7.29499C46.4993 6.80686 47.4546 6.5628 48.5145 6.5628C49.5745 6.5628 50.5158 6.80686 51.3387 7.29499C52.1755 7.76917 52.824 8.4386 53.2842 9.30328C53.7584 10.168 53.9955 11.1582 53.9955 12.2739ZM48.5145 8.25729C47.5522 8.25729 46.7433 8.55017 46.0878 9.13592C45.4463 9.72167 45.0698 10.4887 44.9582 11.4371H52.0709C51.9593 10.5027 51.5758 9.74259 50.9203 9.15684C50.2788 8.55714 49.4768 8.25729 48.5145 8.25729Z"
     fill="white"
     id="path263"
     style="fill:#000000" />
  <path
     d="M61.6166 17.8803C60.487 17.8803 59.4758 17.6363 58.5833 17.1482C57.7046 16.66 57.0143 15.9906 56.5122 15.1399C56.0101 14.2752 55.7591 13.2989 55.7591 12.2111C55.7591 11.1233 56.0101 10.154 56.5122 9.30328C57.0143 8.4386 57.7046 7.76917 58.5833 7.29499C59.4758 6.80686 60.487 6.5628 61.6166 6.5628C62.6208 6.5628 63.5133 6.76502 64.2943 7.16947C65.0893 7.57391 65.7029 8.15967 66.1353 8.92672L64.6081 9.90995C64.2595 9.37998 63.8271 8.98251 63.3111 8.71752C62.7951 8.45254 62.2233 8.32005 61.5957 8.32005C60.8705 8.32005 60.215 8.48043 59.6293 8.8012C59.0574 9.12197 58.6042 9.5822 58.2695 10.1819C57.9487 10.7677 57.7883 11.4441 57.7883 12.2111C57.7883 12.9921 57.9487 13.6825 58.2695 14.2822C58.6042 14.8679 59.0574 15.3212 59.6293 15.6419C60.215 15.9627 60.8705 16.1231 61.5957 16.1231C62.2233 16.1231 62.7951 15.9906 63.3111 15.7256C63.8271 15.4606 64.2595 15.0632 64.6081 14.5332L66.1353 15.4955C65.7029 16.2626 65.0893 16.8553 64.2943 17.2737C63.5133 17.6781 62.6208 17.8803 61.6166 17.8803Z"
     fill="white"
     id="path265"
     style="fill:#000000" />
  <path
     d="M73.3207 17.8803C72.2189 17.8803 71.2287 17.6363 70.3501 17.1482C69.4715 16.66 68.7811 15.9906 68.2791 15.1399C67.7909 14.2752 67.5469 13.2989 67.5469 12.2111C67.5469 11.1233 67.7909 10.154 68.2791 9.30328C68.7811 8.4386 69.4715 7.76917 70.3501 7.29499C71.2287 6.80686 72.2189 6.5628 73.3207 6.5628C74.4225 6.5628 75.4057 6.80686 76.2704 7.29499C77.149 7.76917 77.8324 8.4386 78.3205 9.30328C78.8226 10.154 79.0736 11.1233 79.0736 12.2111C79.0736 13.2989 78.8226 14.2752 78.3205 15.1399C77.8324 15.9906 77.149 16.66 76.2704 17.1482C75.4057 17.6363 74.4225 17.8803 73.3207 17.8803ZM73.3207 16.1231C74.032 16.1231 74.6665 15.9627 75.2244 15.6419C75.7962 15.3072 76.2425 14.847 76.5632 14.2612C76.884 13.6615 77.0444 12.9782 77.0444 12.2111C77.0444 11.4441 76.884 10.7677 76.5632 10.1819C76.2425 9.5822 75.7962 9.12197 75.2244 8.8012C74.6665 8.48043 74.032 8.32005 73.3207 8.32005C72.6094 8.32005 71.9679 8.48043 71.3961 8.8012C70.8382 9.12197 70.3919 9.5822 70.0572 10.1819C69.7365 10.7677 69.5761 11.4441 69.5761 12.2111C69.5761 12.9782 69.7365 13.6615 70.0572 14.2612C70.3919 14.847 70.8382 15.3072 71.3961 15.6419C71.9679 15.9627 72.6094 16.1231 73.3207 16.1231Z"
     fill="white"
     id="path267"
     style="fill:#000000" />
  <path
     d="M92.3109 2.23242V17.7548H90.3862V15.9976C89.94 16.6112 89.3751 17.0784 88.6918 17.3992C88.0084 17.72 87.2553 17.8803 86.4324 17.8803C85.3586 17.8803 84.3962 17.6433 83.5455 17.1691C82.6948 16.6949 82.0254 16.0324 81.5372 15.1817C81.063 14.317 80.826 13.3268 80.826 12.2111C80.826 11.0954 81.063 10.1122 81.5372 9.26144C82.0254 8.4107 82.6948 7.74825 83.5455 7.27407C84.3962 6.79989 85.3586 6.5628 86.4324 6.5628C87.2274 6.5628 87.9596 6.71621 88.629 7.02303C89.2984 7.31591 89.8563 7.75522 90.3026 8.34097V2.23242H92.3109ZM86.5998 16.1231C87.2971 16.1231 87.9317 15.9627 88.5035 15.6419C89.0753 15.3072 89.5216 14.847 89.8423 14.2612C90.1631 13.6615 90.3235 12.9782 90.3235 12.2111C90.3235 11.4441 90.1631 10.7677 89.8423 10.1819C89.5216 9.5822 89.0753 9.12197 88.5035 8.8012C87.9317 8.48043 87.2971 8.32005 86.5998 8.32005C85.8885 8.32005 85.247 8.48043 84.6752 8.8012C84.1173 9.12197 83.671 9.5822 83.3363 10.1819C83.0155 10.7677 82.8552 11.4441 82.8552 12.2111C82.8552 12.9782 83.0155 13.6615 83.3363 14.2612C83.671 14.847 84.1173 15.3072 84.6752 15.6419C85.247 15.9627 85.8885 16.1231 86.5998 16.1231Z"
     fill="white"
     id="path269"
     style="fill:#000000" />
  <path
     d="M100.148 6.5628C101.682 6.5628 102.854 6.93935 103.663 7.69246C104.486 8.44557 104.897 9.56826 104.897 11.0605V17.7548H102.993V16.2905C102.659 16.8065 102.177 17.2039 101.55 17.4829C100.936 17.7479 100.204 17.8803 99.3533 17.8803C98.112 17.8803 97.1149 17.5805 96.3618 16.9808C95.6226 16.3811 95.253 15.5931 95.253 14.6169C95.253 13.6406 95.6087 12.8596 96.3199 12.2739C97.0312 11.6742 98.1609 11.3743 99.7089 11.3743H102.889V10.9769C102.889 10.1122 102.638 9.44971 102.136 8.98948C101.634 8.52925 100.894 8.29913 99.9181 8.29913C99.2626 8.29913 98.6211 8.4107 97.9935 8.63385C97.3659 8.84304 96.8359 9.12895 96.4036 9.49155L95.5668 7.98534C96.1386 7.5251 96.822 7.17644 97.6169 6.93935C98.4119 6.68831 99.2557 6.5628 100.148 6.5628ZM99.688 16.3323C100.455 16.3323 101.118 16.1649 101.675 15.8302C102.233 15.4816 102.638 14.9934 102.889 14.3658V12.8178H99.7926C98.0911 12.8178 97.2404 13.3896 97.2404 14.5332C97.2404 15.0911 97.4566 15.5304 97.8889 15.8511C98.3212 16.1719 98.9209 16.3323 99.688 16.3323Z"
     fill="white"
     id="path271"
     style="fill:#000000" />
  <path
     d="M114.492 6.5628C115.566 6.5628 116.528 6.79989 117.379 7.27407C118.23 7.74825 118.892 8.4107 119.366 9.26144C119.854 10.1122 120.098 11.0954 120.098 12.2111C120.098 13.3268 119.854 14.317 119.366 15.1817C118.892 16.0324 118.23 16.6949 117.379 17.1691C116.528 17.6433 115.566 17.8803 114.492 17.8803C113.669 17.8803 112.916 17.72 112.233 17.3992C111.549 17.0784 110.984 16.6112 110.538 15.9976V17.7548H108.614V2.23242H110.622V8.34097C111.068 7.75522 111.626 7.31591 112.295 7.02303C112.965 6.71621 113.697 6.5628 114.492 6.5628ZM114.325 16.1231C115.036 16.1231 115.67 15.9627 116.228 15.6419C116.8 15.3072 117.246 14.847 117.567 14.2612C117.902 13.6615 118.069 12.9782 118.069 12.2111C118.069 11.4441 117.902 10.7677 117.567 10.1819C117.246 9.5822 116.8 9.12197 116.228 8.8012C115.67 8.48043 115.036 8.32005 114.325 8.32005C113.627 8.32005 112.993 8.48043 112.421 8.8012C111.849 9.12197 111.403 9.5822 111.082 10.1819C110.761 10.7677 110.601 11.4441 110.601 12.2111C110.601 12.9782 110.761 13.6615 111.082 14.2612C111.403 14.847 111.849 15.3072 112.421 15.6419C112.993 15.9627 113.627 16.1231 114.325 16.1231Z"
     fill="white"
     id="path273"
     style="fill:#000000" />
  <path
     d="M122.873 2.23242H124.881V17.7548H122.873V2.23242Z"
     fill="white"
     id="path275"
     style="fill:#000000" />
  <path
     d="M138.737 12.2739C138.737 12.4273 138.723 12.6295 138.695 12.8805H129.699C129.825 13.8568 130.25 14.6448 130.975 15.2445C131.714 15.8302 132.628 16.1231 133.716 16.1231C135.041 16.1231 136.108 15.6768 136.917 14.7842L138.025 16.0813C137.523 16.667 136.896 17.1133 136.142 17.4201C135.403 17.7269 134.574 17.8803 133.653 17.8803C132.482 17.8803 131.443 17.6433 130.536 17.1691C129.629 16.681 128.925 16.0045 128.423 15.1399C127.935 14.2752 127.691 13.2989 127.691 12.2111C127.691 11.1372 127.928 10.168 128.402 9.30328C128.89 8.4386 129.553 7.76917 130.39 7.29499C131.24 6.80686 132.196 6.5628 133.256 6.5628C134.316 6.5628 135.257 6.80686 136.08 7.29499C136.917 7.76917 137.565 8.4386 138.025 9.30328C138.499 10.168 138.737 11.1582 138.737 12.2739ZM133.256 8.25729C132.293 8.25729 131.484 8.55017 130.829 9.13592C130.187 9.72167 129.811 10.4887 129.699 11.4371H136.812C136.7 10.5027 136.317 9.74259 135.661 9.15684C135.02 8.55714 134.218 8.25729 133.256 8.25729Z"
     fill="white"
     id="path277"
     style="fill:#000000" />
</svg>
