<?xml version="1.0" encoding="UTF-8" standalone="no"?>
<svg
   width="210"
   height="50"
   viewBox="0 0 210 50"
   fill="none"
   version="1.1"
   id="svg97"
   sodipodi:docname="upsolver.svg"
   inkscape:version="1.1.2 (0a00cf5339, 2022-02-04)"
   xmlns:inkscape="http://www.inkscape.org/namespaces/inkscape"
   xmlns:sodipodi="http://sodipodi.sourceforge.net/DTD/sodipodi-0.dtd"
   xmlns="http://www.w3.org/2000/svg"
   xmlns:svg="http://www.w3.org/2000/svg">
  <defs
     id="defs101" />
  <sodipodi:namedview
     id="namedview99"
     pagecolor="#ffffff"
     bordercolor="#666666"
     borderopacity="1.0"
     inkscape:pageshadow="2"
     inkscape:pageopacity="0.0"
     inkscape:pagecheckerboard="0"
     showgrid="false"
     inkscape:zoom="3.2269182"
     inkscape:cx="134.3387"
     inkscape:cy="-26.185975"
     inkscape:window-width="1846"
     inkscape:window-height="1016"
     inkscape:window-x="74"
     inkscape:window-y="27"
     inkscape:window-maximized="1"
     inkscape:current-layer="svg97" />
  <path
     fill-rule="evenodd"
     clip-rule="evenodd"
     d="M33.4709 3.74412C31.2164 1.48086 28.2156 0.147113 25.0494 0.00024948C24.0949 -0.00759974 23.1482 0.169834 22.2593 0.523049C20.1666 1.37428 17.6644 3.64167 17.6445 9.59799V33.3884C14.4473 33.0221 11.4355 31.6776 9.00776 29.5329C6.57999 27.3882 4.85086 24.5446 4.05014 21.3791C3.24942 18.2135 3.41453 14.8754 4.5235 11.8073C5.63246 8.73933 7.63324 6.08608 10.2607 4.19917C10.6438 3.92114 10.9032 3.50038 10.9825 3.02902C11.0618 2.55744 10.9549 2.07306 10.6844 1.68143C10.4046 1.30115 9.99188 1.04461 9.53154 0.964258C9.0712 0.883907 8.59785 0.986153 8.20908 1.24993C4.96676 3.57908 2.50482 6.86192 1.15552 10.656C-0.193788 14.4503 -0.365806 18.5736 0.662643 22.4701C1.69109 26.3668 3.8704 29.8494 6.90735 32.4489C9.9443 35.0485 13.6925 36.64 17.6469 37.0087V48.1945C17.6469 48.6735 17.8344 49.1327 18.1674 49.4712C18.5009 49.8098 18.9531 50 19.4244 50C19.8957 50 20.3475 49.8098 20.681 49.4712C20.744 49.4074 20.8018 49.3394 20.8538 49.2677C20.9299 49.1628 20.9945 49.05 21.0466 48.9317C21.0921 48.8286 21.1279 48.7212 21.1535 48.6111L21.1613 48.5758L21.1702 48.5326C21.1767 48.4977 21.1824 48.4626 21.1869 48.4273C21.1897 48.4029 21.1926 48.3783 21.1946 48.3535C21.1991 48.3008 21.2015 48.2478 21.2015 48.1945V37.0087C24.8371 36.6695 28.3051 35.2961 31.2071 33.0459C34.1094 30.7956 36.3281 27.7598 37.6091 24.2868C38.8905 20.8137 39.1817 17.0442 38.4497 13.4106C37.7177 9.77707 35.9922 6.4267 33.4709 3.74412ZM35.2908 17.3656C35.2684 21.3225 33.8239 25.1347 31.229 28.0854C28.6337 31.0361 25.0669 32.922 21.1991 33.3884V9.64715C21.1991 7.45412 21.6106 4.67302 23.5801 3.87095C24.0461 3.69124 24.5419 3.60325 25.04 3.61213C27.2413 3.74536 29.3226 4.67591 30.9057 6.2348C33.73 9.22908 35.3025 13.2181 35.294 17.3648L35.2908 17.3656Z"
     fill="white"
     id="path79"
     style="fill:#000000" />
  <path
     d="M75.1266 36.766H71.7118V34.0264H71.6411C70.0413 36.5561 67.2113 37.3913 64.6534 37.3913C60.3586 37.3913 57.1513 35.5196 57.1513 30.9813V18.6153H60.5612V30.2859C60.5612 32.9519 62.1992 34.4782 65.8453 34.4782C68.951 34.4782 71.711 32.6396 71.711 29.0727V18.6153H75.1258L75.1266 36.766Z"
     fill="white"
     id="path81"
     style="fill:#000000" />
  <path
     d="M111.33 34.6855C107.001 34.6855 105.704 32.6761 105.704 31.0474L102.296 31.0431C102.669 36.3151 107.344 37.3886 111.436 37.3886C116.891 37.3886 120.402 35.4139 120.402 31.1895C120.402 28.6175 118.659 26.9923 114.161 26.367L109.32 25.7131C106.896 25.3627 106.353 24.6722 106.353 23.4583C106.353 21.3109 108.877 20.69 111.059 20.69C114.606 20.69 116.309 22.2449 116.412 24.0835H119.818C119.516 20.5495 116.957 17.9867 111.091 17.9867C106.082 17.9867 102.944 20.1713 102.944 23.8406C102.944 26.6461 105.228 28.313 107.787 28.6582L113.412 29.4195C116.139 29.7978 116.785 30.5635 116.785 31.8427C116.785 33.1219 115.73 34.6855 111.33 34.6855Z"
     fill="white"
     id="path83"
     style="fill:#000000" />
  <path
     fill-rule="evenodd"
     clip-rule="evenodd"
     d="M133.457 17.99C140.415 17.99 143.822 22.4581 143.822 27.6869C143.822 32.9155 140.415 37.3913 133.457 37.3913C126.5 37.3913 123.094 32.9197 123.094 27.6869C123.094 22.454 126.504 17.99 133.457 17.99ZM133.457 20.898C128.515 20.898 126.707 24.3989 126.707 27.6859C126.707 30.9729 128.515 34.4782 133.457 34.4782C138.399 34.4782 140.208 30.9813 140.208 27.6859C140.208 24.3905 138.402 20.898 133.457 20.898Z"
     fill="white"
     id="path85"
     style="fill:#000000" />
  <path
     d="M150.947 11.8232H147.537V36.766H150.947V11.8232Z"
     fill="white"
     id="path87"
     style="fill:#000000" />
  <path
     d="M169.292 18.6153H173.107L165.06 36.766H161.312L153.195 18.6153H157.118L163.254 32.9519L169.292 18.6153Z"
     fill="white"
     id="path89"
     style="fill:#000000" />
  <path
     fill-rule="evenodd"
     clip-rule="evenodd"
     d="M184.769 34.4806C181.735 34.4806 178.458 32.4671 178.189 28.7276L194.622 28.7301V28.2773C194.622 20.7652 189.645 17.9927 184.94 17.9927C177.982 17.9927 174.572 22.4565 174.572 27.6894C174.572 32.9224 177.982 37.3937 184.94 37.3937C186.906 37.4466 188.842 36.8875 190.488 35.791C192.133 34.6948 193.409 33.1136 194.144 31.2598H190.53C189.371 33.8225 186.709 34.4806 184.769 34.4806ZM184.77 20.898C187.974 20.898 190.496 22.733 191.007 26.0243H178.291C178.802 22.7696 181.632 20.898 184.77 20.898Z"
     fill="white"
     id="path91"
     style="fill:#000000" />
  <path
     d="M198.438 18.6153H201.848V21.9394H201.917C203.52 19.0629 205.805 17.99 208.056 17.99C208.711 17.9609 209.366 18.0316 210 18.1999V21.9394C209.211 21.718 208.397 21.6005 207.578 21.5902C204.201 21.5902 201.848 23.6012 201.848 27.5506V36.766H198.438V18.6153Z"
     fill="white"
     id="path93"
     style="fill:#000000" />
  <path
     d="M83.101 21.145C84.4337 19.2364 87.2604 18.1999 89.8864 18.1999C95.2741 18.1999 99.5997 21.6992 99.5997 27.796C99.5997 33.8928 95.2682 37.3937 89.8805 37.3937C88.7483 37.3933 87.6237 37.2087 86.5491 36.8472V33.9426C87.4702 34.3102 88.4527 34.4932 89.4423 34.4815C93.3967 34.4815 95.9886 31.9528 95.9886 27.7976C95.9886 24.3677 94.0447 21.1138 89.4423 21.1138C84.8035 21.1138 82.8229 24.3669 82.8229 27.7976C82.8229 27.9712 82.8371 28.131 82.8471 28.2917L83.0136 43.7638H79.6222V18.6153H83.0319V21.145H83.101Z"
     fill="white"
     id="path95"
     style="fill:#000000" />
</svg>
